<svg width="186" height="36" viewBox="0 0 186 36" fill="none" xmlns="http://www.w3.org/2000/svg">
<circle cx="12" cy="5" r="4" fill="#F01313"/>
<path d="M17.82 5.548V22.936C17.82 25.6 17.088 27.652 15.624 29.092C14.184 30.532 12.18 31.252 9.612 31.252C6.828 31.252 4.62 30.472 2.988 28.912C1.356 27.328 0.54 25.06 0.54 22.108H6.624C6.624 24.484 7.524 25.672 9.324 25.672C10.884 25.672 11.664 24.76 11.664 22.936V5.548H17.82ZM35.2498 31L29.7418 21.388H28.3378V31H22.1818V5.548H32.6938C34.7098 5.548 36.4138 5.896 37.8058 6.592C39.1978 7.288 40.2418 8.248 40.9378 9.472C41.6338 10.672 41.9818 12.052 41.9818 13.612C41.9818 15.46 41.4658 17.032 40.4338 18.328C39.4258 19.624 37.9498 20.512 36.0058 20.992L42.0538 31H35.2498ZM28.3378 17.176H32.1538C33.3778 17.176 34.2778 16.912 34.8538 16.384C35.4298 15.832 35.7178 15.028 35.7178 13.972C35.7178 12.964 35.4178 12.172 34.8178 11.596C34.2418 11.02 33.3538 10.732 32.1538 10.732H28.3378V17.176ZM51.5245 10.444V15.772H60.1285V20.416H51.5245V26.068H61.2085V31H45.3685V5.548H61.2085V10.444H51.5245ZM101.131 5.728V31H94.9755V15.196L89.5035 31H84.1755L78.6675 15.16V31H72.5115V5.728H80.0355L86.9115 23.332L93.6435 5.728H101.131ZM124.763 20.416C124.763 20.92 124.703 21.472 124.583 22.072H110.651C110.723 23.584 111.107 24.676 111.803 25.348C112.499 25.996 113.387 26.32 114.467 26.32C115.379 26.32 116.135 26.092 116.735 25.636C117.335 25.18 117.731 24.592 117.923 23.872H124.439C124.175 25.288 123.599 26.56 122.711 27.688C121.823 28.792 120.695 29.668 119.327 30.316C117.959 30.94 116.435 31.252 114.755 31.252C112.787 31.252 111.035 30.844 109.499 30.028C107.987 29.188 106.799 27.988 105.935 26.428C105.071 24.868 104.639 23.044 104.639 20.956C104.639 18.844 105.059 17.02 105.899 15.484C106.763 13.924 107.963 12.736 109.499 11.92C111.035 11.08 112.787 10.66 114.755 10.66C116.747 10.66 118.499 11.068 120.011 11.884C121.523 12.7 122.687 13.852 123.503 15.34C124.343 16.804 124.763 18.496 124.763 20.416ZM118.535 19.48C118.559 18.16 118.199 17.176 117.455 16.528C116.735 15.856 115.835 15.52 114.755 15.52C113.627 15.52 112.691 15.856 111.947 16.528C111.203 17.2 110.783 18.184 110.687 19.48H118.535ZM135.904 10.66C137.44 10.66 138.76 11.008 139.864 11.704C140.968 12.4 141.772 13.348 142.276 14.548V4.36H148.432V31H142.276V27.364C141.772 28.564 140.968 29.512 139.864 30.208C138.76 30.904 137.44 31.252 135.904 31.252C134.248 31.252 132.76 30.844 131.44 30.028C130.144 29.188 129.112 27.988 128.344 26.428C127.6 24.868 127.228 23.044 127.228 20.956C127.228 18.844 127.6 17.02 128.344 15.484C129.112 13.924 130.144 12.736 131.44 11.92C132.76 11.08 134.248 10.66 135.904 10.66ZM137.884 16.06C136.564 16.06 135.496 16.492 134.68 17.356C133.888 18.22 133.492 19.42 133.492 20.956C133.492 22.492 133.888 23.692 134.68 24.556C135.496 25.42 136.564 25.852 137.884 25.852C139.18 25.852 140.236 25.408 141.052 24.52C141.892 23.632 142.312 22.444 142.312 20.956C142.312 19.444 141.892 18.256 141.052 17.392C140.236 16.504 139.18 16.06 137.884 16.06ZM152.394 5.26C152.394 4.324 152.73 3.556 153.402 2.956C154.074 2.332 154.962 2.02 156.066 2.02C157.17 2.02 158.058 2.332 158.73 2.956C159.402 3.556 159.738 4.324 159.738 5.26C159.738 6.172 159.402 6.94 158.73 7.564C158.058 8.164 157.17 8.464 156.066 8.464C154.962 8.464 154.074 8.164 153.402 7.564C152.73 6.94 152.394 6.172 152.394 5.26ZM159.126 10.912V31H152.97V10.912H159.126ZM171.308 10.66C172.844 10.66 174.164 11.008 175.268 11.704C176.372 12.4 177.188 13.348 177.716 14.548V10.912H183.836V31H177.716V27.364C177.188 28.564 176.372 29.512 175.268 30.208C174.164 30.904 172.844 31.252 171.308 31.252C169.652 31.252 168.164 30.844 166.844 30.028C165.548 29.188 164.516 27.988 163.748 26.428C163.004 24.868 162.632 23.044 162.632 20.956C162.632 18.844 163.004 17.02 163.748 15.484C164.516 13.924 165.548 12.736 166.844 11.92C168.164 11.08 169.652 10.66 171.308 10.66ZM173.288 16.06C171.968 16.06 170.9 16.492 170.084 17.356C169.292 18.22 168.896 19.42 168.896 20.956C168.896 22.492 169.292 23.692 170.084 24.556C170.9 25.42 171.968 25.852 173.288 25.852C174.584 25.852 175.64 25.408 176.456 24.52C177.296 23.632 177.716 22.444 177.716 20.956C177.716 19.444 177.296 18.256 176.456 17.392C175.64 16.504 174.584 16.06 173.288 16.06Z" fill="black"/>
</svg>
