<svg width="63" height="32" viewBox="0 0 63 32" fill="none" xmlns="http://www.w3.org/2000/svg">
<circle cx="11" cy="4" r="4" fill="#F01313"/>
<path d="M17.82 5.548V22.936C17.82 25.6 17.088 27.652 15.624 29.092C14.184 30.532 12.18 31.252 9.612 31.252C6.828 31.252 4.62 30.472 2.988 28.912C1.356 27.328 0.54 25.06 0.54 22.108H6.624C6.624 24.484 7.524 25.672 9.324 25.672C10.884 25.672 11.664 24.76 11.664 22.936V5.548H17.82ZM35.2498 31L29.7418 21.388H28.3378V31H22.1818V5.548H32.6938C34.7098 5.548 36.4138 5.896 37.8058 6.592C39.1978 7.288 40.2418 8.248 40.9378 9.472C41.6338 10.672 41.9818 12.052 41.9818 13.612C41.9818 15.46 41.4658 17.032 40.4338 18.328C39.4258 19.624 37.9498 20.512 36.0058 20.992L42.0538 31H35.2498ZM28.3378 17.176H32.1538C33.3778 17.176 34.2778 16.912 34.8538 16.384C35.4298 15.832 35.7178 15.028 35.7178 13.972C35.7178 12.964 35.4178 12.172 34.8178 11.596C34.2418 11.02 33.3538 10.732 32.1538 10.732H28.3378V17.176ZM51.5245 10.444V15.772H60.1285V20.416H51.5245V26.068H61.2085V31H45.3685V5.548H61.2085V10.444H51.5245Z" fill="black"/>
</svg>
